# xmcd CD database file
#
# Track frame offsets:
#	150
#	19617
#	39330
#	57444
#	81035
#	105604
#	125527
#	147607
#	166684
#	184083
#	202177
#	225716
#	247651
#	266613
#	278129
#
# Disc length: 3897 seconds
#
# Revision: 0
# Processed by: cddbd v1.5.2PL0 Copyright (c) Steve Scherf et al.
# Submitted via: CDex 1.51
#
DISCID=cb0f370f
DTITLE=Jazzband Friedrich Wilhelm Gymnasium Trier - second half
DYEAR=2010
DGENRE=Jazz
TTITLE0=Mame
TTITLE1=That's A Plenty
TTITLE2=Jazz-Me Blues
TTITLE3=Schoolboy
TTITLE4=St. James Infirmary
TTITLE5=Washington And Lee Swing
TTITLE6=Puttin' On The Ritz
TTITLE7=Royal Garden Blues
TTITLE8=Hello Dolly!
TTITLE9=Egyptian Ella
TTITLE10=Ballin' THe Jack
TTITLE11=Struttin' With Some Barbecue
TTITLE12=Wolverine Blues
TTITLE13=Praxis Dr. Hasenbein
TTITLE14=Hevenu Shalom
EXTD=YEAR: 2010
EXTT0=
EXTT1=
EXTT2=
EXTT3=
EXTT4=
EXTT5=
EXTT6=
EXTT7=
EXTT8=
EXTT9=
EXTT10=
EXTT11=
EXTT12=
EXTT13=
EXTT14=
PLAYORDER=
